<?xml version="1.0" encoding="utf-8"?>
<!-- Generator: Adobe Illustrator 24.0.1, SVG Export Plug-In . SVG Version: 6.00 Build 0)  -->
<svg version="1.1" id="Layer_1" xmlns="http://www.w3.org/2000/svg" xmlns:xlink="http://www.w3.org/1999/xlink" x="0px" y="0px"
	 viewBox="0 0 345.83 198.43" style="enable-background:new 0 0 345.83 198.43;" xml:space="preserve">
<g>
	<path d="M76.03,72.17c0-0.92-0.67-1.51-1.85-1.51c-13.44,0-70.4,27.64-70.4,52.26c0,4.79,1.6,8.65,11.51,8.65
		c23.02,0,43.6-24.62,44.28-24.95c0.08,0,0.17-0.08,0.34-0.08c0.92,0,2.35,1.18,2.35,2.02c0,2.18-27.64,25.29-46.88,25.29
		C7.22,133.84,0,130.39,0,120.65c0-23.1,47.05-51.92,70.57-51.92c2.6,0,4.87,0.5,6.55,1.51c0.59,0.34,1.85,2.69,1.85,5.04
		c0,8.32-18.48,17.56-24.62,17.56c-0.25,0-0.42,0-0.59,0c-0.67-0.08-3.19-2.35-3.19-3.7c0-0.5,0.42-1.01,1.51-1.09
		C61.08,86.71,76.03,77.13,76.03,72.17z"/>
	<path d="M95.44,102.67c0,1.09-0.59,1.76-0.67,1.85c-8.74,9.16-20.84,22.85-25.12,22.85c-1.93,0-3.28-2.27-3.28-4.71
		c0-1.51,1.51-4.71,3.61-8.23c-4.79,4.96-10.33,10-12.6,10c-1.34,0-5.29-1.26-5.29-6.64c0-6.89,13.36-20.58,19.74-20.58
		c3.61,0,6.22,2.94,6.22,5.8c0,0.08-0.08,0.08-0.08,0.17c1.18-1.34,2.1-2.1,2.6-2.1c1.18,0,2.77,2.94,2.77,4.37
		c0,1.18-12.77,16.55-12.77,19.58c0,0.08,0.08,0.17,0.17,0.17c2.18,0,19.32-18.23,23.94-22.6C94.77,102.42,95.44,102,95.44,102.67z
		 M72.08,109.73c-0.5-0.25-1.01-0.76-1.01-1.26c0-0.67,4.54-3.78,4.54-6.55c0-0.5-0.42-0.92-0.92-0.92
		c-3.11,0-18.4,14.62-18.4,20.25c0,0.42,0.25,0.67,0.59,0.67C59.56,121.91,66.29,115.86,72.08,109.73z"/>
	<path d="M129.8,102.67c0,1.09-0.59,1.76-0.67,1.85c-4.96,5.21-18.74,21.34-24.11,21.34c-1.93,0-3.28-2.27-3.28-4.62
		c0-4.29,9.83-17.22,10.92-18.82c0.84-1.09,1.34-2.02,1.34-2.44c0-0.17-0.08-0.25-0.25-0.25c-4.45,0-26.55,23.52-26.97,24.11
		l0.17-0.34c-0.59,0.67-0.92,1.09-1.18,1.09c-0.5,0.08-1.93-1.01-2.77-2.6c-0.17-0.42-0.17-1.09,0.34-1.93
		c2.77-4.54,9.07-14.62,13.44-20.58c1.93-2.52,1.6-3.95,3.19-3.95c1.01,0,2.52,2.02,2.94,3.7c0.17,1.01-0.17,1.51-1.01,2.69
		c-1.68,2.27-5.12,7.14-8.07,11.43c6.22-5.97,17.56-16.55,21.26-16.55c1.85,0,4.28,2.52,4.28,6.39c0,2.1-13.27,16.89-13.27,20.08
		c0,0.08,0.08,0.17,0.17,0.17c3.36,0,12.01-10,22.77-20.83C129.13,102.42,129.8,102,129.8,102.67z"/>
	<path d="M236.08,68.31c0,0.67-0.17,1.26-0.59,1.85c-9.83,15.88-18.32,21.51-40.16,58.31c-2.52,4.2-3.28,6.05-4.54,6.05
		c-0.92,0-4.12-1.51-4.12-2.69c0-6.89,43.94-64.94,43.94-64.94c0-0.08,0-0.08,0-0.17c-0.08,0-0.17,0-0.17,0
		c-7.65,0-39.57,31.59-54.27,47.72c-0.92,1.01-2.44,1.68-3.86,1.68c-2.94,0-3.86-2.6-3.86-3.78c0-5.88,16.21-36.8,16.21-36.8
		c-0.67,0-28.14,25.62-37.64,37.81c-0.34,0.34-0.59,0.59-0.76,0.76c-4.2,5.12-7.06,8.65-7.23,8.65c-1.51,0-2.6-0.92-2.6-2.27
		c0-1.51,38.06-53.01,38.9-53.01c1.51,0,3.36,2.35,3.36,3.78c0,0.92-8.32,12.01-17.39,23.69c11.68-11.76,25.62-24.53,26.04-24.53
		c1.26,0,4.03,2.02,4.03,4.29c0,0.5-0.08,1.01-0.42,1.51c-3.61,6.22-16.21,28.99-16.64,34.61c0.76-0.5,45.45-47.05,56.54-47.05
		C233.56,63.77,236.08,65.95,236.08,68.31z"/>
	<path d="M254.22,102.67c0,1.09-0.59,1.76-0.67,1.85c-8.74,9.16-20.84,22.85-25.12,22.85c-1.93,0-3.28-2.27-3.28-4.71
		c0-1.51,1.51-4.71,3.61-8.23c-4.79,4.96-10.33,10-12.6,10c-1.34,0-5.29-1.26-5.29-6.64c0-6.89,13.36-20.58,19.74-20.58
		c3.61,0,6.22,2.94,6.22,5.8c0,0.08-0.08,0.08-0.08,0.17c1.18-1.34,2.1-2.1,2.6-2.1c1.18,0,2.77,2.94,2.77,4.37
		c0,1.18-12.77,16.55-12.77,19.58c0,0.08,0.08,0.17,0.17,0.17c2.18,0,19.32-18.23,23.94-22.6
		C253.55,102.42,254.22,102,254.22,102.67z M230.87,109.73c-0.5-0.25-1.01-0.76-1.01-1.26c0-0.67,4.54-3.78,4.54-6.55
		c0-0.5-0.42-0.92-0.92-0.92c-3.11,0-18.4,14.62-18.4,20.25c0,0.42,0.25,0.67,0.59,0.67C218.35,121.91,225.07,115.86,230.87,109.73z
		"/>
	<path d="M280.1,74.02c-0.42,0.67-33.44,45.28-33.44,49.4c0,0.17,0.08,0.17,0.17,0.17c2.02,0,15.46-14.7,22.1-21
		c0.17-0.17,0.76-0.59,0.76,0.08c0,1.09-0.59,1.76-0.67,1.85c-11.93,12.52-19.41,21.26-23.27,21.26c-1.93,0-3.28-2.27-3.28-4.62
		c0-5.12,32.6-51,35.2-53.35c0.5-0.42,0.92-0.67,1.18-0.67c1.18,0,2.77,2.94,2.77,4.45C281.61,71.83,281.02,72.76,280.1,74.02z"/>
	<path d="M295.72,74.02c-0.42,0.67-33.44,45.28-33.44,49.4c0,0.17,0.08,0.17,0.17,0.17c2.02,0,15.46-14.7,22.1-21
		c0.17-0.17,0.76-0.59,0.76,0.08c0,1.09-0.59,1.76-0.67,1.85c-11.93,12.52-19.41,21.26-23.27,21.26c-1.93,0-3.28-2.27-3.28-4.62
		c0-5.12,32.6-51,35.2-53.35c0.5-0.42,0.92-0.67,1.18-0.67c1.18,0,2.77,2.94,2.77,4.45C297.24,71.83,296.65,72.76,295.72,74.02z"/>
	<path d="M309.17,102.67c0,1.09-0.59,1.76-0.67,1.85c-2.6,2.69-16.89,19.91-28.48,19.91c-4.03,0-6.3-2.27-6.3-6.05
		c0-8.65,11.51-21.84,19.41-21.84c1.85,0,6.22,1.01,6.22,4.54c0,8.74-15.04,13.36-18.48,13.19c-1.51,2.52-2.44,4.87-2.44,6.72
		c0,0.67,0.08,0.92,1.76,0.92c11.68,0,21.17-12.69,28.23-19.32C308.49,102.42,309.17,102,309.17,102.67z M282.37,111.91
		c6.55-1.6,14.7-7.98,14.7-11.43c0-0.5-0.25-0.84-0.84-0.84C293.04,99.64,286.57,105.78,282.37,111.91z"/>
	<path d="M345.79,86.71c0,0.25-0.17,0.42-0.42,0.42c0,0-0.42-0.08-1.09-0.08c-7.06,0-12.6,0.34-16.97,0.84
		c-2.44,3.11-5.04,6.64-23.61,34.87c-3.95,5.96-3.61,5.8-4.12,5.88s-1.34-0.34-2.1-2.02c-0.17-0.34-0.08-0.92,0.25-1.85
		c1.26-3.28,3.95-8.15,7.23-13.53c5.29-11.17,7.14-17.81,6.81-21.42c-1.93-0.34-2.94-1.43-2.94-2.6c0-0.5,0.17-0.84,0.59-0.84
		c0,0,1.93-0.67,12.77-1.09c4.54-6.38,8.07-11.09,8.82-11.76c0.5-0.42,0.84-0.67,1.09-0.67c1.26,0,2.77,2.94,2.77,4.45
		c0,0.25-0.59,1.09-1.43,2.44c-1.85,2.44-3.02,4.12-3.95,5.29c3.78-0.08,8.32-0.08,13.69-0.08c0.25,0,0.59-0.08,0.92-0.08
		C344.96,84.94,345.79,86.2,345.79,86.71z M319.67,88.89c-2.77,0.42-4.71,0.84-6.3,0.92c0.5,3.36-0.17,6.81-1.6,10.67
		C314.46,96.45,317.15,92.5,319.67,88.89z"/>
</g>
</svg>
